<svg width="77" height="79" viewBox="0 0 77 79" fill="none" xmlns="http://www.w3.org/2000/svg">
<path d="M62.7916 57.6464L59.9423 48.0916C59.7464 47.4832 59.3456 46.9604 58.8067 46.6151C58.8257 46.227 48.8859 45.5191 48.4443 45.427C47.1242 45.3298 45.9686 46.3077 45.8464 47.626C45.7242 48.9443 46.679 50.1182 47.994 50.2673L53.144 50.7467C49.0938 55.4729 43.2206 58.2474 36.9972 58.3741C30.7743 58.4994 24.7937 55.9652 20.5546 51.4071C16.3166 46.8483 14.2244 40.6988 14.8032 34.5017C15.3805 28.3042 18.5753 22.6475 23.5834 18.9517C28.5914 15.2573 34.939 13.8726 41.0306 15.1475C47.1227 16.4232 52.3819 20.2359 55.4875 25.63C56.1586 26.7922 57.6451 27.1905 58.8073 26.5195C59.9696 25.8485 60.3679 24.362 59.6968 23.1997C55.9088 16.606 49.492 11.9386 42.0535 10.3639C34.615 8.78922 26.8572 10.4572 20.7228 14.9495C14.5874 19.4426 10.6567 26.3348 9.91333 33.9023C9.17 41.4698 11.6836 48.9959 16.8256 54.5975C21.9686 60.1986 29.2531 63.3442 36.8557 63.2478C44.4594 63.1512 51.6615 59.8224 56.6603 54.0924L58.1343 59.0367L58.1352 59.0361C58.5381 60.2981 59.8759 61.0052 61.1457 60.6267C62.4139 60.2478 63.1462 58.923 62.7915 57.647L62.7916 57.6464Z" fill="#F5F5F5"/>
<path d="M22.4904 29.0482C23.6058 27.7822 24.8296 26.6707 26.89 26.6707C28.8884 26.6707 30.2051 28.0138 30.2051 29.8973C30.2051 31.2559 29.57 32.4447 28.4236 33.6026L20.7554 41.43V44.6875H35.0849V40.7815H26.797L31.429 35.9801C33.2105 34.1429 34.5582 32.3057 34.5582 29.6657C34.5582 25.5282 31.7388 22.6875 27.1998 22.6875C23.172 22.6875 20.9723 24.8798 19.7949 26.4082L22.4904 29.0482Z" fill="#F5F5F5"/>
<path d="M50.7741 31.0861H46.5914V36.8447H41.975L49.225 23.0889H44.5775L36.9713 37.7093V40.7352H46.5914V44.6875H50.7741V40.7352H53.7949V36.8447H50.7741V31.0861Z" fill="#F5F5F5"/>
</svg>
