<svg width="63" height="56" viewBox="0 0 63 56" fill="none" xmlns="http://www.w3.org/2000/svg">
<path d="M62.2707 46.4422C62.2707 47.7537 61.746 48.9999 60.8279 49.9834L56.8274 53.9839C54.9258 55.8856 51.6466 55.8856 49.8099 53.9839L46.4653 50.6393C42.7928 52.6069 38.5296 53.7217 34.0702 53.7217C19.4454 53.7217 7.57501 41.8513 7.57501 27.2265V19.3567L2.91843 24.0128C2.26242 24.6688 1.1476 24.6688 0.492007 24.0128C-0.164003 23.3568 -0.164003 22.242 0.492007 21.5864L8.09967 13.9787C8.42767 13.6507 8.88651 13.454 9.34585 13.454C9.80518 13.454 10.264 13.6507 10.592 13.9787L18.1997 21.5864C18.8557 22.2424 18.8557 23.3572 18.1997 24.0128C17.5437 24.6688 16.4288 24.6688 15.7733 24.0128L11.1167 19.3562V27.226C10.9849 39.949 21.3469 50.311 34.0705 50.311C37.6117 50.311 40.9567 49.5241 43.9078 48.0813L29.1518 33.3253C28.037 32.2104 27.2502 30.9643 26.7254 29.5215L22.987 19.4874C22.5935 18.5039 22.8557 17.4545 23.5771 16.733C24.1018 16.2082 24.7573 15.9461 25.4134 15.9461C25.7414 15.9461 26.0035 16.0115 26.3315 16.1428L36.3661 19.8153C37.8089 20.34 39.1205 21.1928 40.1698 22.2417L54.9259 36.9977C56.3687 33.9807 57.1555 30.7016 57.1555 27.1604C57.1555 14.4375 46.7935 4.07545 34.0706 4.07545C29.1519 4.07545 24.4953 5.58373 20.5606 8.46946C19.7738 8.99418 18.7243 8.86289 18.1342 8.07604C17.6095 7.2892 17.7408 6.23974 18.5276 5.64962C23.0529 2.3705 28.4304 0.599667 34.0706 0.599667C48.6955 0.599667 60.5659 12.4701 60.5659 27.0949C60.5659 31.5543 59.451 35.8173 57.4835 39.4899L60.8281 42.8345C61.7467 43.8844 62.2714 45.1305 62.2714 46.4421L62.2707 46.4422ZM35.1197 23.0293L26.7906 19.947L29.873 28.276C30.1351 28.8662 30.4631 29.4563 30.7911 29.981L36.7592 24.0129C36.3658 23.6195 35.7757 23.2915 35.1197 23.0294L35.1197 23.0293ZM58.4014 45.3929L39.3825 26.374L33.2177 32.5389L52.2365 51.5577C52.4987 51.8199 52.8925 52.017 53.3514 52.017C53.7448 52.017 54.1382 51.8857 54.4662 51.5577L58.4667 47.5572C58.7289 47.2951 58.926 46.9012 58.926 46.4424C58.8601 46.0489 58.6634 45.6555 58.4013 45.3929L58.4014 45.3929Z" fill="#F5F5F5"/>
</svg>
