<svg width="42" height="48" viewBox="0 0 42 48" fill="none" xmlns="http://www.w3.org/2000/svg">
<path d="M37.4997 47.9997H4.49997C3.30701 47.9984 2.1629 47.5239 1.31956 46.6801C0.475814 45.8367 0.00137142 44.6926 0 43.4997V4.49999C0.00133928 3.30702 0.475779 2.16292 1.31956 1.31958C2.16297 0.475832 3.30709 0.00138901 4.49997 1.75892e-05H30.2569C31.4513 -0.00333056 32.5974 0.471443 33.4394 1.31821L40.6815 8.56033C41.5283 9.4024 42.0031 10.5485 41.9997 11.7428V43.4997C41.9984 44.6927 41.5239 45.8368 40.6802 46.6801C39.8368 47.5239 38.6926 47.9983 37.4997 47.9997ZM4.49997 3C4.10221 3.00067 3.72118 3.15871 3.43995 3.43995C3.15871 3.72119 3.00067 4.10222 3 4.49997V43.4997C3.00067 43.8975 3.1587 44.2785 3.43995 44.5597C3.72119 44.841 4.10222 44.999 4.49997 44.9997H37.4997C37.8975 44.999 38.2785 44.841 38.5598 44.5597C38.841 44.2785 38.9991 43.8975 38.9997 43.4997V11.7428C39.0007 11.3447 38.8427 10.9623 38.5601 10.6817L31.318 3.43961C31.0374 3.15702 30.655 2.99899 30.2569 2.99999L4.49997 3Z" fill="#F5F5F5"/>
<path d="M26.9999 13.4999H10.5C9.30701 13.4986 8.1629 13.0241 7.31956 12.1803C6.47581 11.3369 6.00137 10.1928 6 8.99994V1.49999C6 1.10223 6.15804 0.720527 6.43928 0.439283C6.72053 0.158039 7.10223 0 7.49999 0H29.9998C30.3976 0 30.7793 0.158039 31.0605 0.439283C31.3418 0.720527 31.4998 1.10223 31.4998 1.49999V8.99994C31.4985 10.1929 31.0241 11.337 30.1803 12.1803C29.3369 13.0241 28.1927 13.4985 26.9999 13.4999ZM8.99998 2.99998V8.99994C9.00065 9.3977 9.15869 9.77872 9.43993 10.06C9.72117 10.3412 10.1022 10.4992 10.5 10.4999H26.9998C27.3976 10.4992 27.7786 10.3412 28.0599 10.06C28.3411 9.77872 28.4991 9.39769 28.4998 8.99994V2.99998H8.99998Z" fill="#F5F5F5"/>
<path d="M32.9998 46.4999H8.99999C8.60223 46.4999 8.22053 46.3418 7.93928 46.0606C7.65804 45.7793 7.5 45.3976 7.5 44.9999V30C7.50134 28.807 7.97578 27.6629 8.81956 26.8196C9.66297 25.9758 10.8071 25.5014 12 25.5H29.9998C31.1928 25.5013 32.3369 25.9758 33.1803 26.8196C34.024 27.663 34.4984 28.8071 34.4998 30V44.9999C34.4998 45.3976 34.3418 45.7793 34.0605 46.0606C33.7793 46.3418 33.3976 46.4999 32.9998 46.4999ZM10.5 43.4999H31.4998V30C31.4992 29.6022 31.3411 29.2212 31.0599 28.9399C30.7786 28.6587 30.3976 28.5007 29.9999 28.5H12C11.6022 28.5007 11.2212 28.6587 10.94 28.9399C10.6587 29.2212 10.5007 29.6022 10.5 30L10.5 43.4999Z" fill="#F5F5F5"/>
<path d="M24 8.99995C23.6022 8.99995 23.2205 8.84191 22.9393 8.56067C22.658 8.27942 22.5 7.89772 22.5 7.49996V5.99997C22.5 5.46392 22.7859 4.96875 23.25 4.70089C23.7141 4.43304 24.2859 4.43304 24.75 4.70089C25.214 4.96875 25.5 5.46394 25.5 5.99997V7.49996C25.5 7.89772 25.3419 8.27942 25.0607 8.56067C24.7795 8.84191 24.3978 8.99995 24 8.99995Z" fill="#F5F5F5"/>
<path d="M13.5937 13.4999C13.196 13.4999 12.8143 13.3419 12.533 13.0606C12.2518 12.7794 12.0938 12.3977 12.0938 11.9999V1.49997C12.0938 0.963924 12.3797 0.468747 12.8437 0.200892C13.3078 -0.0669638 13.8797 -0.0669638 14.3437 0.200892C14.8078 0.468747 15.0937 0.963941 15.0937 1.49997V11.9999C15.0937 12.3977 14.9357 12.7794 14.6544 13.0606C14.3732 13.3419 13.9915 13.4999 13.5937 13.4999Z" fill="#F5F5F5"/>
<path d="M26.9999 34.5H15C14.4639 34.5 13.9687 34.214 13.7009 33.75C13.433 33.2859 13.433 32.714 13.7009 32.25C13.9687 31.7859 14.4639 31.5 15 31.5H26.9999C27.5359 31.5 28.0311 31.7859 28.299 32.25C28.5668 32.7141 28.5668 33.2859 28.299 33.75C28.0311 34.214 27.5359 34.5 26.9999 34.5Z" fill="#F5F5F5"/>
<path d="M26.9999 40.5H15C14.4639 40.5 13.9687 40.214 13.7009 39.75C13.433 39.2859 13.433 38.714 13.7009 38.25C13.9687 37.7859 14.4639 37.5 15 37.5H26.9999C27.5359 37.5 28.0311 37.7859 28.299 38.25C28.5668 38.7141 28.5668 39.2859 28.299 39.75C28.0311 40.214 27.5359 40.5 26.9999 40.5Z" fill="#F5F5F5"/>
</svg>
