<svg width="137" height="211" viewBox="0 0 137 211" fill="none" xmlns="http://www.w3.org/2000/svg">
<path d="M57.7755 143.161L15.0183 123.11C13.8392 122.557 12.4361 123.044 11.8959 124.203L10.5192 127.141C9.97908 128.301 10.4929 129.691 11.6786 130.244L54.4358 150.295C55.6149 150.848 57.018 150.361 57.5581 149.202L58.9348 146.264C59.4816 145.104 58.9612 143.715 57.7755 143.161Z" fill="#F5F5F5"/>
<path d="M37.4085 145.552L26.2103 140.302L22.8509 138.728L9.9993 132.701C9.05734 132.259 7.93753 132.648 7.50278 133.57L0.57308 148.352C0.329355 148.879 0.197627 149.452 0.197627 150.038L0.191033 152.192L0 210.765L44.9112 173.166L46.558 171.782C47.006 171.407 47.3617 170.939 47.612 170.419L54.5417 155.637C54.9764 154.715 54.5614 153.602 53.6195 153.16L40.7679 147.133L37.4085 145.552ZM24.6623 143.596L35.8605 148.846L29.6883 162.013L18.4902 156.763L24.6623 143.596ZM10.1047 136.765L21.3029 142.015L15.1307 155.183L3.93253 149.933L10.1047 136.765ZM22.9167 186.748L3.8008 177.783L3.87985 153.918L13.5893 158.47L16.9488 160.044L28.1469 165.294L31.5064 166.868L41.2159 171.42L22.9167 186.748ZM44.2459 168.838L33.0478 163.588L39.2199 150.42L50.4181 155.67L44.2459 168.838Z" fill="#F5F5F5"/>
<path d="M79.2965 38.3543C72.4326 35.7919 54.7922 31.2468 39.24 44.2432C38.713 44.6846 38.4429 45.3367 38.5022 46.0284C38.5615 46.7332 38.9435 47.3524 39.5693 47.7344C39.6418 47.7805 39.7142 47.8201 39.7933 47.853C40.564 48.2153 41.4796 48.1033 42.1185 47.5764C55.9911 36.0422 71.6883 40.1131 77.788 42.3988C78.8683 42.8007 80.0474 42.3396 80.5283 41.312C81.0355 40.2383 80.5546 38.9406 79.4611 38.4268C79.4084 38.4004 79.3557 38.3741 79.2965 38.3543Z" fill="#F5F5F5"/>
<path d="M103.024 43.2226C95.9822 34.6922 87.386 30.7135 84.9817 29.5213C82.5444 28.441 73.9877 24.3833 62.9278 24.4162C47.9552 24.4689 34.8139 31.0627 24.92 43.486C18.7741 51.2062 15.1314 60.2174 14.3937 69.5514C14.0248 74.2481 14.3805 78.6878 15.4674 82.7587C16.1854 85.4594 16.9297 87.8308 17.6477 90.1231C20.5922 99.5296 22.542 105.741 16.9165 117.75C16.4093 118.83 16.8836 120.128 17.9837 120.641L43.9173 132.801C46.1306 133.842 48.7523 132.926 49.7667 130.753L62.8159 102.935C67.8089 103.772 72.1104 103.133 75.6015 101.038C79.9557 98.4229 81.5761 94.385 81.6354 91.7172C81.7078 88.5817 79.5341 85.354 76.3459 83.8587C75.8189 83.615 75.2788 83.4174 74.732 83.2856C72.69 82.7916 67.5652 82.4425 64.0411 89.9584L60.2996 97.9355C58.5079 97.4085 56.5976 96.6708 54.6148 95.742C53.0405 95.0042 51.5848 94.2203 50.2805 93.4035L51.1764 91.4603C53.2711 86.9942 54.0549 82.673 53.4357 78.9579C52.8495 75.4337 51.0314 72.7199 48.4427 71.5012C45.0898 69.9269 40.4525 71.0138 37.6463 77.0015L37.587 77.1398C37.4421 77.5153 34.2342 86.4409 44.7736 94.8066L34.3857 117.354C33.8917 118.428 34.3791 119.719 35.4792 120.233C36.0984 120.523 36.8032 120.51 37.4224 120.2C37.8769 119.97 38.2128 119.574 38.4236 119.12L48.4559 97.3492C49.7865 98.1529 51.2422 98.9236 52.7836 99.6481C54.7268 100.557 56.6305 101.308 58.4486 101.881L46.4599 127.439C46.0779 128.25 45.0964 128.599 44.2664 128.203L22.5222 118.007C22.1072 117.816 21.9162 117.341 22.0809 116.933C26.9093 105.063 24.6696 97.9289 21.8371 88.9045C21.1323 86.6583 20.4077 84.3396 19.7095 81.7245C18.7544 78.1279 18.4382 74.169 18.7675 69.9598C19.4394 61.469 22.7659 53.2548 28.3848 46.1934C37.5673 34.6592 49.2134 28.7901 63.0135 28.744C63.4285 28.744 63.8435 28.744 64.2585 28.7571C77.4921 29.0602 90.1394 34.9952 98.8344 44.9747C99.1045 45.2843 99.3746 45.6005 99.6381 45.9233C108.425 56.5615 111.357 69.2748 108.366 83.7006C106.535 92.534 102.339 100.346 96.2457 106.288C93.2222 109.232 89.9747 111.525 86.5955 113.086C84.1451 114.219 81.8923 115.148 79.7185 116.044C70.7468 119.732 63.659 122.644 57.4934 134.777L56.7425 136.378C56.3078 137.307 56.5515 138.446 57.388 139.066C58.5408 139.915 60.1085 139.494 60.6816 138.282C66.3136 126.267 72.3409 123.797 81.4575 120.042C83.6774 119.126 85.9763 118.184 88.5124 117.012C92.3329 115.24 95.9822 112.678 99.3548 109.391C106.061 102.856 110.658 94.2928 112.667 84.6294C115.895 69.0903 112.562 54.7698 103.024 43.2226ZM68.0197 91.8292C69.5743 88.5093 71.6031 86.9745 73.7374 87.4883C74.0009 87.5541 74.2643 87.6463 74.5212 87.7649C76.2339 88.5685 77.2681 90.3537 77.2417 91.5459C77.2022 93.2059 75.9441 95.7222 73.2697 97.3295C70.9774 98.7062 68.1054 99.22 64.7261 98.8445L68.0197 91.8292ZM41.6711 78.7866C43.0215 75.9607 44.9581 74.6367 46.6049 75.4074C47.8301 75.9805 48.7589 77.5417 49.1014 79.5903C49.4308 81.5796 49.3649 84.9324 47.1779 89.5962L46.651 90.7357C39.9453 84.8666 41.4866 79.3663 41.6711 78.7866Z" fill="#F5F5F5"/>
<path d="M136.987 66.8686C136.856 65.6829 135.788 64.82 134.603 64.9518L120.71 66.4602C119.525 66.592 118.662 67.6591 118.794 68.8448C118.925 70.0305 119.992 70.8934 121.178 70.7616L135.07 69.2532C136.263 69.128 137.119 68.0609 136.987 66.8686Z" fill="#F5F5F5"/>
<path d="M109.979 41.9367C110.697 42.8919 112.054 43.0895 113.009 42.3715L124.188 33.986C125.143 33.268 125.341 31.9111 124.623 30.9559C123.905 30.0008 122.548 29.8032 121.592 30.5212L110.414 38.9066C109.459 39.6181 109.268 40.975 109.979 41.9367Z" fill="#F5F5F5"/>
<path d="M88.6698 23.2881C89.7765 23.7426 91.0412 23.2157 91.4957 22.1156L96.8313 9.19821C97.2858 8.09156 96.7589 6.82683 95.6588 6.37232C94.5522 5.91781 93.2874 6.44478 92.8329 7.54483L87.4973 20.4622C87.0428 21.5689 87.5698 22.8336 88.6698 23.2881Z" fill="#F5F5F5"/>
<path d="M58.3814 16.3061C58.5526 17.4918 59.6527 18.3086 60.8318 18.1374C62.0175 17.9661 62.8343 16.866 62.663 15.6869L60.6539 1.85391C60.4827 0.668226 59.3826 -0.148581 58.2035 0.0226851C57.0178 0.193951 56.201 1.29401 56.3723 2.47311L58.3814 16.3061Z" fill="#F5F5F5"/>
<path d="M34.2595 27.9128C35.1882 27.1619 35.3332 25.7983 34.5822 24.8695L25.795 14.0007C25.044 13.0719 23.6805 12.927 22.7517 13.6779C21.8229 14.4289 21.678 15.7924 22.4289 16.7212L31.2162 27.59C31.9671 28.5188 33.3307 28.6637 34.2595 27.9128Z" fill="#F5F5F5"/>
</svg>
