<svg xmlns="http://www.w3.org/2000/svg" xmlns:xlink="http://www.w3.org/1999/xlink" version="1.1" id="Layer_1" x="0px" y="0px" style="enable-background:new 0 0 1200 700;" xml:space="preserve" viewBox="289.86 169.88 620.28 320.26"><style type="text/css">	.st0{fill:url(#SVGID_1_);}	.st1{fill:url(#SVGID_2_);}	.st2{fill:url(#SVGID_3_);}	.st3{fill:url(#SVGID_4_);}	.st4{fill:url(#SVGID_5_);}	.st5{fill:url(#SVGID_6_);}	.st6{fill:url(#SVGID_7_);}	.st7{fill:url(#SVGID_8_);}	.st8{fill:url(#SVGID_9_);}	.st9{fill:#6E35A0;}	.st10{fill:#11357C;}</style><g>	<g>		<radialGradient id="SVGID_1_" cx="501.5522" cy="194.1247" r="360.8227" gradientUnits="userSpaceOnUse">			<stop offset="0" style="stop-color:#8913D0"></stop>			<stop offset="1" style="stop-color:#0071BC"></stop>		</radialGradient>		<path class="st0" d="M377.58,387.21l-64.91-30.44c-1.79-0.84-3.92-0.1-4.74,1.66l-2.09,4.46c-0.82,1.76-0.04,3.87,1.76,4.71    l64.91,30.44c1.79,0.84,3.92,0.1,4.74-1.66l2.09-4.46C380.17,390.16,379.38,388.05,377.58,387.21z"></path>		<radialGradient id="SVGID_2_" cx="501.5522" cy="194.1247" r="360.8227" gradientUnits="userSpaceOnUse">			<stop offset="0" style="stop-color:#8913D0"></stop>			<stop offset="1" style="stop-color:#0071BC"></stop>		</radialGradient>		<path class="st1" d="M346.66,390.84l-17-7.97l-5.1-2.39l-19.51-9.15c-1.43-0.67-3.13-0.08-3.79,1.32l-10.52,22.44l0,0    c-0.37,0.8-0.57,1.67-0.57,2.56l-0.01,3.27l-0.29,88.92l68.18-57.08l2.5-2.1c0.68-0.57,1.22-1.28,1.6-2.07l0,0l10.52-22.44    c0.66-1.4,0.03-3.09-1.4-3.76l-19.51-9.15L346.66,390.84z M327.31,387.87l17,7.97l-9.37,19.99l-17-7.97L327.31,387.87z     M305.21,377.5l17,7.97l-9.37,19.99l-17-7.97L305.21,377.5z M324.66,453.38l-29.02-13.61l0.12-36.23l14.74,6.91l5.1,2.39l17,7.97    l5.1,2.39l14.74,6.91L324.66,453.38z M357.04,426.19l-17-7.97l9.37-19.99l17,7.97L357.04,426.19z"></path>		<radialGradient id="SVGID_3_" cx="501.5522" cy="194.1247" r="360.8227" gradientUnits="userSpaceOnUse">			<stop offset="0" style="stop-color:#8913D0"></stop>			<stop offset="1" style="stop-color:#0071BC"></stop>		</radialGradient>		<path class="st2" d="M410.25,228.1c-10.42-3.89-37.2-10.79-60.81,8.94c-0.8,0.67-1.21,1.66-1.12,2.71    c0.09,1.07,0.67,2.01,1.62,2.59c0.11,0.07,0.22,0.13,0.34,0.18c0,0,0,0,0,0c1.17,0.55,2.56,0.38,3.53-0.42    c21.06-17.51,44.89-11.33,54.15-7.86c1.64,0.61,3.43-0.09,4.16-1.65c0.77-1.63,0.04-3.6-1.62-4.38    C410.42,228.17,410.34,228.13,410.25,228.1z"></path>		<radialGradient id="SVGID_4_" cx="501.5522" cy="194.1247" r="360.8227" gradientUnits="userSpaceOnUse">			<stop offset="0" style="stop-color:#8913D0"></stop>			<stop offset="1" style="stop-color:#0071BC"></stop>		</radialGradient>		<path class="st3" d="M446.27,235.49c-10.69-12.95-23.74-18.99-27.39-20.8c-3.7-1.64-16.69-7.8-33.48-7.75    c-22.73,0.08-42.68,10.09-57.7,28.95c-9.33,11.72-14.86,25.4-15.98,39.57c-0.56,7.13-0.02,13.87,1.63,20.05    c1.09,4.1,2.22,7.7,3.31,11.18c4.47,14.28,7.43,23.71-1.11,41.94c-0.77,1.64-0.05,3.61,1.62,4.39l39.37,18.46    c3.36,1.58,7.34,0.19,8.88-3.11l19.81-42.23c7.58,1.27,14.11,0.3,19.41-2.88c6.61-3.97,9.07-10.1,9.16-14.15    c0.11-4.76-3.19-9.66-8.03-11.93c-0.8-0.37-1.62-0.67-2.45-0.87c-3.1-0.75-10.88-1.28-16.23,10.13l-5.68,12.11    c-2.72-0.8-5.62-1.92-8.63-3.33c-2.39-1.12-4.6-2.31-6.58-3.55l1.36-2.95c3.18-6.78,4.37-13.34,3.43-18.98    c-0.89-5.35-3.65-9.47-7.58-11.32c-5.09-2.39-12.13-0.74-16.39,8.35l-0.09,0.21c-0.22,0.57-5.09,14.12,10.91,26.82l-15.77,34.23    c-0.75,1.63-0.01,3.59,1.66,4.37c0.94,0.44,2.01,0.42,2.95-0.05c0.69-0.35,1.2-0.95,1.52-1.64l15.23-33.05    c2.02,1.22,4.23,2.39,6.57,3.49c2.95,1.38,5.84,2.52,8.6,3.39l-18.2,38.8c-0.58,1.23-2.07,1.76-3.33,1.16l-33.01-15.48    c-0.63-0.29-0.92-1.01-0.67-1.63c7.33-18.02,3.93-28.85-0.37-42.55c-1.07-3.41-2.17-6.93-3.23-10.9    c-1.45-5.46-1.93-11.47-1.43-17.86c1.02-12.89,6.07-25.36,14.6-36.08c13.94-17.51,31.62-26.42,52.57-26.49    c0.63,0,1.26,0,1.89,0.02c20.09,0.46,39.29,9.47,52.49,24.62c0.41,0.47,0.82,0.95,1.22,1.44c13.34,16.15,17.79,35.45,13.25,57.35    c-2.78,13.41-9.15,25.27-18.4,34.29c-4.59,4.47-9.52,7.95-14.65,10.32c-3.72,1.72-7.14,3.13-10.44,4.49    c-13.62,5.6-24.38,10.02-33.74,28.44l-1.14,2.43c-0.66,1.41-0.29,3.14,0.98,4.08c1.75,1.29,4.13,0.65,5-1.19    c8.55-18.24,17.7-21.99,31.54-27.69c3.37-1.39,6.86-2.82,10.71-4.6c5.8-2.69,11.34-6.58,16.46-11.57    c10.18-9.92,17.16-22.92,20.21-37.59C465.81,274.76,460.75,253.02,446.27,235.49z M393.13,309.28c2.36-5.04,5.44-7.37,8.68-6.59    c0.4,0.1,0.8,0.24,1.19,0.42c2.6,1.22,4.17,3.93,4.13,5.74c-0.06,2.52-1.97,6.34-6.03,8.78c-3.48,2.09-7.84,2.87-12.97,2.3    L393.13,309.28z M353.13,289.48c2.05-4.29,4.99-6.3,7.49-5.13c1.86,0.87,3.27,3.24,3.79,6.35c0.5,3.02,0.4,8.11-2.92,15.19    l-0.8,1.73C350.51,298.71,352.85,290.36,353.13,289.48z"></path>		<radialGradient id="SVGID_5_" cx="501.5522" cy="194.1247" r="360.8227" gradientUnits="userSpaceOnUse">			<stop offset="0" style="stop-color:#8913D0"></stop>			<stop offset="1" style="stop-color:#0071BC"></stop>		</radialGradient>		<path class="st4" d="M497.83,271.39c-0.2-1.8-1.82-3.11-3.62-2.91l-21.09,2.29c-1.8,0.2-3.11,1.82-2.91,3.62l0,0    c0.2,1.8,1.82,3.11,3.62,2.91l21.09-2.29C496.73,274.82,498.03,273.2,497.83,271.39z"></path>		<radialGradient id="SVGID_6_" cx="501.5522" cy="194.1247" r="360.8227" gradientUnits="userSpaceOnUse">			<stop offset="0" style="stop-color:#8913D0"></stop>			<stop offset="1" style="stop-color:#0071BC"></stop>		</radialGradient>		<path class="st5" d="M456.83,233.54L456.83,233.54c1.09,1.45,3.15,1.75,4.6,0.66l16.97-12.73c1.45-1.09,1.75-3.15,0.66-4.6l0,0    c-1.09-1.45-3.15-1.75-4.6-0.66l-16.97,12.73C456.04,230.02,455.75,232.08,456.83,233.54z"></path>		<radialGradient id="SVGID_7_" cx="501.5522" cy="194.1247" r="360.8227" gradientUnits="userSpaceOnUse">			<stop offset="0" style="stop-color:#8913D0"></stop>			<stop offset="1" style="stop-color:#0071BC"></stop>		</radialGradient>		<path class="st6" d="M424.48,205.23L424.48,205.23c1.68,0.69,3.6-0.11,4.29-1.78l8.1-19.61c0.69-1.68-0.11-3.6-1.78-4.29l0,0    c-1.68-0.69-3.6,0.11-4.29,1.78l-8.1,19.61C422.01,202.62,422.81,204.54,424.48,205.23z"></path>		<radialGradient id="SVGID_8_" cx="501.5522" cy="194.1247" r="360.8227" gradientUnits="userSpaceOnUse">			<stop offset="0" style="stop-color:#8913D0"></stop>			<stop offset="1" style="stop-color:#0071BC"></stop>		</radialGradient>		<path class="st7" d="M378.5,194.63c0.26,1.8,1.93,3.04,3.72,2.78l0,0c1.8-0.26,3.04-1.93,2.78-3.72l-3.05-21    c-0.26-1.8-1.93-3.04-3.72-2.78l0,0c-1.8,0.26-3.04,1.93-2.78,3.72L378.5,194.63z"></path>		<radialGradient id="SVGID_9_" cx="501.5522" cy="194.1247" r="360.8227" gradientUnits="userSpaceOnUse">			<stop offset="0" style="stop-color:#8913D0"></stop>			<stop offset="1" style="stop-color:#0071BC"></stop>		</radialGradient>		<path class="st8" d="M341.88,212.25L341.88,212.25c1.41-1.14,1.63-3.21,0.49-4.62l-13.34-16.5c-1.14-1.41-3.21-1.63-4.62-0.49l0,0    c-1.41,1.14-1.63,3.21-0.49,4.62l13.34,16.5C338.4,213.17,340.47,213.39,341.88,212.25z"></path>	</g>	<g>		<path class="st9" d="M338.26,472.75c0,0-1.85,3.46,14.24,6.78c17.07,3.52,20.68,4.87-1.27,6.26c-20.96,1.33-61.37,4.05-61.37,4.05    s49.75,1.12,72.45-1.01c22.83-2.14,14.98-8.08,9.01-9.59c-4.18-1.06-13.57-3.74-18.82-5.27c-1.21-0.35-1.1-2.21,0.15-2.43    c10.09-1.75,36.72-3.6,60.74-3.55h355.47v-3.36H412.43C412.43,464.64,338.26,464.48,338.26,472.75z"></path>	</g>	<g>		<g>			<path class="st9" d="M787.08,477.28c-1.78,0-3.33,1.54-3.33,3.33s1.54,3.35,3.33,3.35s3.33-1.57,3.33-3.35     S788.86,477.28,787.08,477.28z"></path>			<path class="st9" d="M811.35,452.37c4.55,0,8.48,2.11,10.74,5.53l3.29-2.21c-2.7-4.43-8.04-7.13-14.04-7.13     c-10.23,0-17.77,7.37-17.77,17.7c0,10.33,7.55,17.7,17.77,17.7c5.92,0,11.09-2.65,13.94-6.96l-3.2-2.36     c-2.31,3.44-6.2,5.51-10.74,5.51c-7.72,0-13.62-5.6-13.62-13.89S803.63,452.37,811.35,452.37z"></path>			<path class="st9" d="M848.36,448.56c-10.23,0-17.77,7.37-17.77,17.7c0,10.33,7.55,17.7,17.77,17.7c10.25,0,17.77-7.37,17.77-17.7     C866.13,455.93,858.61,448.56,848.36,448.56z M848.36,480.15c-7.72,0-13.62-5.6-13.62-13.89s5.9-13.89,13.62-13.89     c7.74,0,13.64,5.6,13.64,13.89S856.1,480.15,848.36,480.15z"></path>			<polygon class="st9" points="904.12,449.05 892.12,475.06 880.1,449.05 874.1,449.05 874.1,483.47 878.06,483.47 878.06,453.67      890.03,479.66 894.19,479.66 906.18,453.48 906.18,483.47 910.14,483.47 910.14,449.05    "></polygon>		</g>		<g>			<path class="st10" d="M519.64,393.57c0-10.61-7.07-17.21-20.37-17.21h-23.4v53.8h12.83v-20.13h1.88l14.18,20.13h15.29     l-15.45-20.52C514.26,408.09,519.64,402.1,519.64,393.57z M488.71,399.22V388h10.41c4.53,0,7.46,1.77,7.46,5.57     c0,3.84-2.84,5.65-7.46,5.65H488.71z"></path>			<path class="st10" d="M518.72,376.36c2.93,3.23,4.89,7.25,5.73,11.91h14.96v41.88h12.83v-41.88h15.91l-3.78-11.91H518.72z"></path>			<path class="st10" d="M746.05,393.57c0-10.61-7.07-17.21-20.37-17.21h-23.4h-20.42c12.28,3.14,20.42,13.54,20.42,26.9     c0,13.35-8.14,23.76-20.42,26.9h20.42h12.83v-20.13H717l14.18,20.13h15.29l-15.45-20.52     C740.67,408.09,746.05,402.1,746.05,393.57z M715.12,399.22V388h10.41c4.53,0,7.46,1.77,7.46,5.57c0,3.84-2.84,5.65-7.46,5.65     H715.12z"></path>			<polygon class="st10" points="802.78,376.36 786.99,376.36 771.54,397.3 766.89,397.3 766.89,376.36 754.06,376.36      754.06,430.15 766.89,430.15 766.89,408.86 771.43,408.86 788.37,430.15 804.51,430.15 781.92,402.6    "></polygon>			<path class="st10" d="M645.57,403.25c0-13.35,8.14-23.76,20.42-26.9h-13.91h-13.06l-10.26,38.62L618,376.36h-13.87l-10.76,38.54     l-10.26-38.54h-13.26l15.68,53.8h15.29l10.14-34.7l10.14,34.7h15.29h29.59C653.71,427.01,645.57,416.61,645.57,403.25z"></path>			<path class="st9" d="M687.66,403.25c0-8.45-5.7-14.29-13.73-14.29s-13.73,5.84-13.73,14.29c0,8.45,5.7,14.29,13.73,14.29     S687.66,411.7,687.66,403.25z"></path>			<polygon class="st10" points="413.92,430.15 427.64,430.15 442.22,402.42 456.81,430.15 470.52,430.15 442.22,376.36    "></polygon>			<polygon class="st10" points="470.52,430.15 435.22,430.15 440.75,420.75 462.89,420.75    "></polygon>			<g>				<path class="st10" d="M833.99,410.2c-1.76,0.59-3.68,0.86-5.64,0.86c-10.85,0-18.87-7.64-18.87-17.86      c0-10.18,8.22-17.82,19.42-17.82c11.16,0,19.46,7.64,19.46,17.82c0,4.27-1.45,8.03-4.07,12.14l-16.33,25.57h-7.36L833.99,410.2z       M842.1,393.21c0-7.13-5.6-12.22-13.2-12.22c-7.6,0-13.2,5.13-13.2,12.22c0,7.13,5.6,12.26,13.2,12.26      C836.5,405.47,842.1,400.38,842.1,393.21z"></path>				<path class="st10" d="M877.08,430.92h-6.03V384.2l-16.21,7.01v-6.3l22.24-9.48V430.92z"></path>				<path class="st10" d="M910.14,430.92h-6.03V384.2l-16.21,7.01v-6.3l22.24-9.48V430.92z"></path>			</g>		</g>	</g></g></svg>