<svg width="245" height="99" viewBox="0 0 245 99" fill="none" xmlns="http://www.w3.org/2000/svg">
<path d="M34.1103 56.8962L17.3549 49.0386C16.8929 48.8218 16.3431 49.0128 16.1314 49.4671L15.5919 50.6184C15.3802 51.0727 15.5816 51.6174 16.0462 51.8342L32.8016 59.6917C33.2637 59.9086 33.8135 59.7176 34.0251 59.2632L34.5646 58.112C34.7789 57.6577 34.575 57.113 34.1103 56.8962Z" fill="url(#paint0_radial_25_59)"/>
<path d="M26.1281 57.8321L21.7399 55.7748L20.4234 55.1579L15.3872 52.7959C15.0181 52.623 14.5793 52.7753 14.4089 53.1367L11.6933 58.9292C11.5978 59.1357 11.5462 59.3603 11.5462 59.59L11.5436 60.4341L11.4688 83.3872L29.0682 68.653L29.7136 68.111C29.8891 67.9638 30.0285 67.7805 30.1266 67.5766L32.8421 61.7841C33.0125 61.4227 32.8499 60.9865 32.4807 60.8135L27.4446 58.4516L26.1281 57.8321ZM21.1332 57.0655L25.5215 59.1228L23.1028 64.2828L18.7145 62.2255L21.1332 57.0655ZM15.4285 54.3886L19.8168 56.4459L17.3981 61.606L13.0098 59.5487L15.4285 54.3886ZM20.4492 73.9757L12.9582 70.4625L12.9892 61.1104L16.794 62.8941L18.1105 63.511L22.4988 65.5683L23.8152 66.1853L27.6201 67.969L20.4492 73.9757ZM28.8075 66.9571L24.4193 64.8998L26.838 59.7397L31.2262 61.797L28.8075 66.9571Z" fill="url(#paint1_radial_25_59)"/>
<path d="M42.542 15.8244C39.8523 14.8203 32.9395 13.0391 26.845 18.1321C26.6385 18.3051 26.5327 18.5606 26.5559 18.8316C26.5791 19.1078 26.7288 19.3505 26.9741 19.5002C27.0025 19.5183 27.0309 19.5338 27.0618 19.5467C27.3638 19.6886 27.7226 19.6448 27.973 19.4383C33.4093 14.9184 39.5606 16.5136 41.9509 17.4093C42.3743 17.5668 42.8363 17.3861 43.0248 16.9834C43.2235 16.5627 43.0351 16.0541 42.6066 15.8528C42.5859 15.8425 42.5653 15.8321 42.542 15.8244Z" fill="url(#paint2_radial_25_59)"/>
<path d="M51.8416 17.733C49.0821 14.3902 45.7135 12.8311 44.7713 12.3639C43.8162 11.9405 40.4631 10.3505 36.1291 10.3634C30.2617 10.384 25.112 12.9679 21.2348 17.8363C18.8264 20.8616 17.3989 24.3929 17.1098 28.0506C16.9653 29.8911 17.1047 31.6309 17.5306 33.2262C17.812 34.2845 18.1036 35.2138 18.385 36.1121C19.5389 39.7982 20.3029 42.2324 18.0985 46.9382C17.8997 47.3615 18.0856 47.87 18.5167 48.0714L28.6793 52.8365C29.5467 53.2444 30.574 52.8856 30.9716 52.0337L36.0852 41.1328C38.0418 41.4606 39.7274 41.2102 41.0955 40.3894C42.8018 39.3646 43.4368 37.7822 43.46 36.7368C43.4884 35.5081 42.6366 34.2432 41.3872 33.6572C41.1807 33.5617 40.969 33.4843 40.7548 33.4327C39.9546 33.2391 37.9463 33.1023 36.5653 36.0476L35.0991 39.1735C34.397 38.967 33.6484 38.6779 32.8714 38.314C32.2545 38.0249 31.684 37.7177 31.1729 37.3976L31.524 36.6361C32.3448 34.886 32.652 33.1926 32.4094 31.7367C32.1796 30.3557 31.4672 29.2922 30.4527 28.8147C29.1388 28.1977 27.3216 28.6237 26.2219 30.9701L26.1987 31.0243C26.1419 31.1714 24.8848 34.6691 29.0149 37.9474L24.9442 46.7833C24.7506 47.2041 24.9416 47.71 25.3727 47.9113C25.6153 48.0249 25.8915 48.0198 26.1342 47.8984C26.3123 47.8081 26.4439 47.6532 26.5265 47.4751L30.4579 38.9438C30.9793 39.2587 31.5498 39.5607 32.1538 39.8447C32.9153 40.2009 33.6613 40.4952 34.3738 40.7198L29.6757 50.7353C29.526 51.0528 29.1414 51.1896 28.8162 51.0347L20.2952 47.0388C20.1326 46.964 20.0577 46.7781 20.1222 46.6181C22.0144 41.9665 21.1367 39.171 20.0267 35.6345C19.7505 34.7543 19.4666 33.8457 19.193 32.8209C18.8187 31.4115 18.6948 29.8601 18.8238 28.2106C19.0871 24.8833 20.3907 21.6644 22.5926 18.8972C26.1909 14.3773 30.7547 12.0774 36.1626 12.0593C36.3252 12.0593 36.4879 12.0593 36.6505 12.0645C41.8364 12.1832 46.7925 14.509 50.1999 18.4197C50.3057 18.541 50.4115 18.6649 50.5148 18.7914C53.9583 22.9602 55.107 27.9422 53.935 33.5953C53.2174 37.0569 51.5731 40.1183 49.1854 42.4467C48.0006 43.6005 46.728 44.4988 45.4038 45.1106C44.4435 45.5546 43.5607 45.9186 42.7089 46.2696C39.1931 47.7152 36.4156 48.8561 33.9995 53.6109L33.7052 54.2382C33.5348 54.6021 33.6303 55.0487 33.9582 55.2913C34.4099 55.6243 35.0242 55.4591 35.2488 54.9842C37.4559 50.2758 39.8178 49.3078 43.3903 47.8365C44.2602 47.4777 45.1611 47.1085 46.1549 46.6491C47.6521 45.9547 49.0822 44.9506 50.4038 43.6625C53.0316 41.1018 54.8333 37.7461 55.6207 33.9593C56.8855 27.8699 55.5793 22.2581 51.8416 17.733ZM38.1244 36.7807C38.7336 35.4797 39.5287 34.8782 40.365 35.0796C40.4683 35.1054 40.5715 35.1415 40.6722 35.188C41.3433 35.5029 41.7486 36.2024 41.7383 36.6697C41.7228 37.3202 41.2298 38.3062 40.1817 38.9361C39.2834 39.4756 38.158 39.6769 36.8338 39.5298L38.1244 36.7807ZM27.7991 31.6696C28.3283 30.5622 29.0872 30.0434 29.7325 30.3454C30.2127 30.57 30.5766 31.1818 30.7108 31.9846C30.8399 32.7641 30.8141 34.078 29.9571 35.9056L29.7506 36.3522C27.1228 34.0522 27.7268 31.8968 27.7991 31.6696Z" fill="url(#paint3_radial_25_59)"/>
<path d="M65.1505 26.9986C65.0988 26.5339 64.6807 26.1958 64.216 26.2474L58.772 26.8385C58.3074 26.8901 57.9692 27.3083 58.0208 27.773C58.0725 28.2376 58.4906 28.5757 58.9553 28.5241L64.3993 27.933C64.8665 27.884 65.2021 27.4658 65.1505 26.9986Z" fill="url(#paint4_radial_25_59)"/>
<path d="M54.5667 17.2288C54.8481 17.6031 55.3799 17.6805 55.7542 17.3992L60.1347 14.1131C60.509 13.8318 60.5864 13.3 60.305 12.9257C60.0237 12.5514 59.4919 12.474 59.1176 12.7554L54.7371 16.0414C54.3628 16.3202 54.288 16.8519 54.5667 17.2288Z" fill="url(#paint5_radial_25_59)"/>
<path d="M46.2168 9.92137C46.6505 10.0995 47.1461 9.89297 47.3242 9.46189L49.4151 4.39991C49.5932 3.96625 49.3867 3.47063 48.9556 3.29252C48.522 3.11441 48.0263 3.32092 47.8482 3.752L45.7574 8.81398C45.5793 9.24764 45.7858 9.74326 46.2168 9.92137Z" fill="url(#paint6_radial_25_59)"/>
<path d="M34.347 7.18485C34.4141 7.64949 34.8452 7.96957 35.3072 7.90246C35.7719 7.83535 36.0919 7.40426 36.0248 6.94221L35.2375 1.52142C35.1704 1.05678 34.7393 0.736697 34.2773 0.803812C33.8126 0.870926 33.4926 1.30201 33.5597 1.76407L34.347 7.18485Z" fill="url(#paint7_radial_25_59)"/>
<path d="M24.8947 11.7334C25.2587 11.4391 25.3155 10.9048 25.0212 10.5408L21.5777 6.28165C21.2835 5.91768 20.7491 5.86089 20.3852 6.15516C20.0212 6.44943 19.9644 6.98377 20.2587 7.34773L23.7022 11.6069C23.9964 11.9709 24.5308 12.0277 24.8947 11.7334Z" fill="url(#paint8_radial_25_59)"/>
<path d="M19.1172 91.2346C19.1172 91.2346 18.3865 92.6012 24.7417 93.9126C31.4841 95.3029 32.91 95.8362 24.2401 96.3852C15.9613 96.9105 0 97.9849 0 97.9849C0 97.9849 19.6504 98.4272 28.6165 97.5859C37.634 96.7407 34.5334 94.3945 32.1753 93.798C30.5243 93.3794 26.8154 92.3208 24.7417 91.7165C24.2638 91.5782 24.3073 90.8436 24.801 90.7567C28.7864 90.0655 39.3048 89.3347 48.7923 89.3545H189.197V88.0273H48.4131C48.4131 88.0313 19.1172 87.9681 19.1172 91.2346Z" fill="#6E35A0"/>
<path d="M196.393 93.0215C195.69 93.0215 195.078 93.6298 195.078 94.3368C195.078 95.0438 195.686 95.66 196.393 95.66C197.1 95.66 197.709 95.0398 197.709 94.3368C197.709 93.6337 197.096 93.0215 196.393 93.0215Z" fill="#6E35A0"/>
<path d="M205.98 83.1826C207.777 83.1826 209.329 84.016 210.222 85.3669L211.521 84.494C210.455 82.7442 208.346 81.6777 205.976 81.6777C201.935 81.6777 198.957 84.5888 198.957 88.6689C198.957 92.7491 201.939 95.6601 205.976 95.6601C208.314 95.6601 210.356 94.6134 211.482 92.9111L210.218 91.9789C209.306 93.3376 207.769 94.1552 205.976 94.1552C202.927 94.1552 200.596 91.9433 200.596 88.6689C200.596 85.3945 202.931 83.1826 205.98 83.1826Z" fill="#6E35A0"/>
<path d="M220.599 81.6777C216.558 81.6777 213.58 84.5888 213.58 88.6689C213.58 92.7491 216.562 95.6601 220.599 95.6601C224.647 95.6601 227.618 92.7491 227.618 88.6689C227.618 84.5888 224.647 81.6777 220.599 81.6777ZM220.599 94.1552C217.55 94.1552 215.219 91.9433 215.219 88.6689C215.219 85.3945 217.55 83.1826 220.599 83.1826C223.656 83.1826 225.986 85.3945 225.986 88.6689C225.986 91.9433 223.656 94.1552 220.599 94.1552Z" fill="#6E35A0"/>
<path d="M242.623 81.8711L237.883 92.1446L233.136 81.8711H230.766V95.4664H232.33V83.6959L237.058 93.9615H238.701L243.437 83.6209V95.4664H245.001V81.8711H242.623Z" fill="#6E35A0"/>
<path d="M90.7591 59.9578C90.7591 55.7671 87.9666 53.1602 82.7133 53.1602H73.4707V74.4103H78.5383V66.4592H79.2809L84.8818 74.4103H90.9211L84.8186 66.3052C88.6341 65.693 90.7591 63.327 90.7591 59.9578ZM78.5423 62.1895V57.7578H82.6541C84.4433 57.7578 85.6006 58.4569 85.6006 59.9578C85.6006 61.4746 84.4789 62.1895 82.6541 62.1895H78.5423Z" fill="#11357C"/>
<path d="M90.3965 53.1602C91.5538 54.436 92.328 56.0238 92.6598 57.8644H98.5687V74.4063H103.636V57.8644H109.921L108.427 53.1602H90.3965Z" fill="#11357C"/>
<path d="M180.188 59.9578C180.188 55.7671 177.395 53.1602 172.142 53.1602H162.9H154.834C159.684 54.4004 162.9 58.5082 162.9 63.7852C162.9 69.0582 159.684 73.17 154.834 74.4103H162.9H167.967V66.4592H168.714L174.315 74.4103H180.354L174.251 66.3052C178.063 65.693 180.188 63.327 180.188 59.9578ZM167.971 62.1895V57.7578H172.083C173.872 57.7578 175.029 58.4569 175.029 59.9578C175.029 61.4746 173.908 62.1895 172.083 62.1895H167.971Z" fill="#11357C"/>
<path d="M202.595 53.1602H196.358L190.256 61.4311H188.419V53.1602H183.352V74.4063H188.419V65.9971H190.212L196.903 74.4063H203.278L194.356 63.5245L202.595 53.1602Z" fill="#11357C"/>
<path d="M140.5 63.7813C140.5 58.5083 143.715 54.3965 148.565 53.1562H143.071H137.913L133.86 68.4105L129.61 53.1602H124.132L119.882 68.3828L115.829 53.1602H110.592L116.785 74.4103H122.824L126.83 60.7044L130.835 74.4103H136.874H148.562C143.715 73.1661 140.5 69.0583 140.5 63.7813Z" fill="#11357C"/>
<path d="M157.126 63.781C157.126 60.4434 154.874 58.1367 151.702 58.1367C148.531 58.1367 146.279 60.4434 146.279 63.781C146.279 67.1186 148.531 69.4253 151.702 69.4253C154.874 69.4253 157.126 67.1186 157.126 63.781Z" fill="#6E35A0"/>
<path d="M49.002 74.4063H54.4211L60.18 63.4534L65.9428 74.4063H71.358L60.18 53.1602L49.002 74.4063Z" fill="#11357C"/>
<path d="M71.3589 74.4062H57.416L59.6003 70.6934H68.3452L71.3589 74.4062Z" fill="#11357C"/>
<path d="M214.923 66.5267C214.228 66.7598 213.47 66.8664 212.696 66.8664C208.41 66.8664 205.242 63.8488 205.242 59.812C205.242 55.7911 208.489 52.7734 212.913 52.7734C217.321 52.7734 220.599 55.7911 220.599 59.812C220.599 61.4986 220.026 62.9837 218.992 64.6071L212.541 74.7068H209.634L214.923 66.5267ZM218.127 59.816C218.127 56.9998 215.915 54.9893 212.913 54.9893C209.911 54.9893 207.699 57.0155 207.699 59.816C207.699 62.6322 209.911 64.6585 212.913 64.6585C215.915 64.6585 218.127 62.648 218.127 59.816Z" fill="#11357C"/>
<path d="M231.943 74.7106H229.561V56.257L223.158 59.0258V56.5374L231.943 52.793V74.7106Z" fill="#11357C"/>
<path d="M245.001 74.7106H242.619V56.257L236.217 59.0258V56.5374L245.001 52.793V74.7106Z" fill="#11357C"/>
<defs>
<radialGradient id="paint0_radial_25_59" cx="0" cy="0" r="1" gradientUnits="userSpaceOnUse" gradientTransform="translate(66.1116 7.05452) scale(93.1401 93.1402)">
<stop stop-color="#8913D0"/>
<stop offset="1" stop-color="#0071BC"/>
</radialGradient>
<radialGradient id="paint1_radial_25_59" cx="0" cy="0" r="1" gradientUnits="userSpaceOnUse" gradientTransform="translate(66.1108 7.05346) scale(93.1401 93.1401)">
<stop stop-color="#8913D0"/>
<stop offset="1" stop-color="#0071BC"/>
</radialGradient>
<radialGradient id="paint2_radial_25_59" cx="0" cy="0" r="1" gradientUnits="userSpaceOnUse" gradientTransform="translate(66.1101 7.05427) scale(93.1401 93.1401)">
<stop stop-color="#8913D0"/>
<stop offset="1" stop-color="#0071BC"/>
</radialGradient>
<radialGradient id="paint3_radial_25_59" cx="0" cy="0" r="1" gradientUnits="userSpaceOnUse" gradientTransform="translate(66.1117 7.05531) scale(93.1401 93.1401)">
<stop stop-color="#8913D0"/>
<stop offset="1" stop-color="#0071BC"/>
</radialGradient>
<radialGradient id="paint4_radial_25_59" cx="0" cy="0" r="1" gradientUnits="userSpaceOnUse" gradientTransform="translate(66.1113 7.05391) scale(93.1401 93.1399)">
<stop stop-color="#8913D0"/>
<stop offset="1" stop-color="#0071BC"/>
</radialGradient>
<radialGradient id="paint5_radial_25_59" cx="0" cy="0" r="1" gradientUnits="userSpaceOnUse" gradientTransform="translate(66.111 7.05442) scale(93.1402 93.1401)">
<stop stop-color="#8913D0"/>
<stop offset="1" stop-color="#0071BC"/>
</radialGradient>
<radialGradient id="paint6_radial_25_59" cx="0" cy="0" r="1" gradientUnits="userSpaceOnUse" gradientTransform="translate(66.1117 7.05473) scale(93.14 93.1401)">
<stop stop-color="#8913D0"/>
<stop offset="1" stop-color="#0071BC"/>
</radialGradient>
<radialGradient id="paint7_radial_25_59" cx="0" cy="0" r="1" gradientUnits="userSpaceOnUse" gradientTransform="translate(66.1107 7.05442) scale(93.14 93.1401)">
<stop stop-color="#8913D0"/>
<stop offset="1" stop-color="#0071BC"/>
</radialGradient>
<radialGradient id="paint8_radial_25_59" cx="0" cy="0" r="1" gradientUnits="userSpaceOnUse" gradientTransform="translate(66.1113 7.05468) scale(93.1401 93.1401)">
<stop stop-color="#8913D0"/>
<stop offset="1" stop-color="#0071BC"/>
</radialGradient>
</defs>
</svg>
