<svg width="245" height="98" viewBox="0 0 245 98" fill="none" xmlns="http://www.w3.org/2000/svg">
<path d="M34.1103 56.1012L17.3549 48.2437C16.8929 48.0269 16.3431 48.2179 16.1314 48.6722L15.5919 49.8235C15.3802 50.2778 15.5816 50.8224 16.0462 51.0393L32.8016 58.8968C33.2637 59.1137 33.8135 58.9226 34.0251 58.4683L34.5646 57.3171C34.7789 56.8627 34.575 56.3181 34.1103 56.1012Z" fill="#F5F5F5"/>
<path d="M26.1281 57.0382L21.7399 54.9808L20.4234 54.3639L15.3872 52.002C15.0181 51.829 14.5793 51.9813 14.4089 52.3427L11.6933 58.1352C11.5978 58.3417 11.5462 58.5663 11.5462 58.796L11.5436 59.6401L11.4688 82.5933L29.0682 67.8591L29.7136 67.317C29.8891 67.1699 30.0285 66.9866 30.1266 66.7827L32.8421 60.9902C33.0125 60.6288 32.8499 60.1925 32.4807 60.0196L27.4446 57.6577L26.1281 57.0382ZM21.1332 56.2715L25.5215 58.3288L23.1028 63.4889L18.7145 61.4316L21.1332 56.2715ZM15.4285 53.5947L19.8168 55.652L17.3981 60.8121L13.0098 58.7547L15.4285 53.5947ZM20.4492 73.1818L12.9582 69.6686L12.9892 60.3165L16.794 62.1001L18.1105 62.7171L22.4988 64.7744L23.8152 65.3913L27.6201 67.175L20.4492 73.1818ZM28.8075 66.1632L24.4193 64.1058L26.838 58.9458L31.2262 61.0031L28.8075 66.1632Z" fill="#F5F5F5"/>
<path d="M42.542 15.0295C39.8523 14.0253 32.9395 12.2442 26.845 17.3372C26.6385 17.5101 26.5327 17.7657 26.5559 18.0367C26.5791 18.3129 26.7288 18.5556 26.9741 18.7053C27.0025 18.7234 27.0309 18.7388 27.0618 18.7518C27.3638 18.8937 27.7226 18.8498 27.973 18.6433C33.4093 14.1234 39.5606 15.7187 41.9509 16.6144C42.3743 16.7719 42.8363 16.5912 43.0248 16.1885C43.2235 15.7677 43.0351 15.2592 42.6066 15.0579C42.5859 15.0476 42.5653 15.0372 42.542 15.0295Z" fill="#F5F5F5"/>
<path d="M51.8416 16.9371C49.0821 13.5943 45.7135 12.0352 44.7713 11.568C43.8162 11.1447 40.4631 9.55455 36.1291 9.56746C30.2617 9.58811 25.112 12.172 21.2348 17.0404C18.8264 20.0657 17.3989 23.597 17.1098 27.2547C16.9653 29.0952 17.1047 30.835 17.5306 32.4303C17.812 33.4886 18.1036 34.4179 18.385 35.3162C19.5389 39.0023 20.3029 41.4365 18.0985 46.1423C17.8997 46.5656 18.0856 47.0741 18.5167 47.2755L28.6793 52.0406C29.5467 52.4485 30.574 52.0897 30.9716 51.2378L36.0852 40.3369C38.0418 40.6647 39.7274 40.4143 41.0955 39.5935C42.8018 38.5687 43.4368 36.9863 43.46 35.9409C43.4884 34.7122 42.6366 33.4473 41.3872 32.8614C41.1807 32.7658 40.969 32.6884 40.7548 32.6368C39.9546 32.4432 37.9463 32.3064 36.5653 35.2517L35.0991 38.3776C34.397 38.1711 33.6484 37.882 32.8714 37.5181C32.2545 37.229 31.684 36.9218 31.1729 36.6017L31.524 35.8402C32.3448 34.0901 32.652 32.3967 32.4094 30.9408C32.1796 29.5598 31.4672 28.4963 30.4527 28.0188C29.1388 27.4018 27.3216 27.8278 26.2219 30.1742L26.1987 30.2284C26.1419 30.3755 24.8848 33.8732 29.0149 37.1515L24.9442 45.9874C24.7506 46.4082 24.9416 46.9141 25.3727 47.1154C25.6153 47.229 25.8915 47.2239 26.1342 47.1025C26.3123 47.0122 26.4439 46.8573 26.5265 46.6792L30.4579 38.1479C30.9793 38.4628 31.5498 38.7648 32.1538 39.0488C32.9153 39.405 33.6613 39.6993 34.3738 39.9239L29.6757 49.9394C29.526 50.2569 29.1414 50.3937 28.8162 50.2388L20.2952 46.2429C20.1326 46.1681 20.0577 45.9822 20.1222 45.8222C22.0144 41.1706 21.1367 38.3751 20.0267 34.8386C19.7505 33.9584 19.4666 33.0498 19.193 32.025C18.8187 30.6156 18.6948 29.0642 18.8238 27.4147C19.0871 24.0874 20.3907 20.8685 22.5926 18.1013C26.1909 13.5814 30.7547 11.2815 36.1626 11.2634C36.3252 11.2634 36.4879 11.2634 36.6505 11.2686C41.8364 11.3873 46.7925 13.7131 50.1999 17.6238C50.3057 17.7451 50.4115 17.869 50.5148 17.9955C53.9583 22.1643 55.107 27.1463 53.935 32.7994C53.2174 36.261 51.5731 39.3224 49.1854 41.6508C48.0006 42.8046 46.728 43.7029 45.4038 44.3147C44.4435 44.7587 43.5607 45.1227 42.7089 45.4737C39.1931 46.9193 36.4156 48.0602 33.9995 52.815L33.7052 53.4423C33.5348 53.8062 33.6303 54.2528 33.9582 54.4954C34.4099 54.8284 35.0242 54.6632 35.2488 54.1883C37.4559 49.4799 39.8178 48.5119 43.3903 47.0406C44.2602 46.6818 45.1611 46.3126 46.1549 45.8532C47.6521 45.1588 49.0822 44.1547 50.4038 42.8666C53.0316 40.3059 54.8333 36.9502 55.6207 33.1634C56.8855 27.074 55.5793 21.4622 51.8416 16.9371ZM38.1244 35.9848C38.7336 34.6838 39.5287 34.0823 40.365 34.2837C40.4683 34.3095 40.5715 34.3456 40.6722 34.3921C41.3433 34.707 41.7486 35.4065 41.7383 35.8738C41.7228 36.5243 41.2298 37.5103 40.1817 38.1402C39.2834 38.6797 38.158 38.881 36.8338 38.7339L38.1244 35.9848ZM27.7991 30.8737C28.3283 29.7663 29.0872 29.2475 29.7325 29.5495C30.2127 29.7741 30.5766 30.3859 30.7108 31.1887C30.8399 31.9682 30.8141 33.2821 29.9571 35.1097L29.7506 35.5563C27.1228 33.2563 27.7268 31.1009 27.7991 30.8737Z" fill="#F5F5F5"/>
<path d="M65.1505 26.2046C65.0988 25.74 64.6807 25.4018 64.216 25.4534L58.772 26.0446C58.3074 26.0962 57.9692 26.5144 58.0208 26.979C58.0725 27.4437 58.4906 27.7818 58.9553 27.7302L64.3993 27.1391C64.8665 27.09 65.2021 26.6718 65.1505 26.2046Z" fill="#F5F5F5"/>
<path d="M54.5667 16.4339C54.8481 16.8082 55.3799 16.8856 55.7542 16.6042L60.1347 13.3182C60.509 13.0368 60.5864 12.5051 60.305 12.1308C60.0237 11.7565 59.4919 11.6791 59.1176 11.9604L54.7371 15.2465C54.3628 15.5252 54.288 16.057 54.5667 16.4339Z" fill="#F5F5F5"/>
<path d="M46.2168 9.12645C46.6505 9.30456 47.1461 9.09805 47.3242 8.66697L49.4151 3.60499C49.5932 3.17133 49.3867 2.67571 48.9556 2.4976C48.522 2.31949 48.0263 2.52599 47.8482 2.95708L45.7574 8.01906C45.5793 8.45272 45.7858 8.94833 46.2168 9.12645Z" fill="#F5F5F5"/>
<path d="M34.347 6.38993C34.4141 6.85457 34.8452 7.17465 35.3072 7.10754C35.7719 7.04042 36.0919 6.60934 36.0248 6.14728L35.2375 0.726498C35.1704 0.261859 34.7393 -0.0582248 34.2773 0.00888965C33.8126 0.0760041 33.4926 0.507086 33.5597 0.969144L34.347 6.38993Z" fill="#F5F5F5"/>
<path d="M24.8947 10.9385C25.2587 10.6442 25.3155 10.1099 25.0212 9.74592L21.5777 5.48673C21.2835 5.12276 20.7491 5.06597 20.3852 5.36024C20.0212 5.65451 19.9644 6.18885 20.2587 6.55281L23.7022 10.812C23.9964 11.176 24.5308 11.2328 24.8947 10.9385Z" fill="#F5F5F5"/>
<path d="M19.1172 90.4387C19.1172 90.4387 18.3865 91.8053 24.7417 93.1167C31.4841 94.507 32.91 95.0403 24.2401 95.5893C15.9613 96.1146 0 97.189 0 97.189C0 97.189 19.6504 97.6313 28.6165 96.79C37.634 95.9448 34.5334 93.5986 32.1753 93.0021C30.5243 92.5835 26.8154 91.5249 24.7417 90.9206C24.2638 90.7823 24.3073 90.0477 24.801 89.9608C28.7864 89.2696 39.3048 88.5388 48.7923 88.5586H189.197V87.2314H48.4131C48.4131 87.2354 19.1172 87.1722 19.1172 90.4387Z" fill="#F5F5F5"/>
<path d="M196.393 92.2285C195.69 92.2285 195.078 92.8368 195.078 93.5438C195.078 94.2508 195.686 94.867 196.393 94.867C197.1 94.867 197.709 94.2469 197.709 93.5438C197.709 92.8407 197.096 92.2285 196.393 92.2285Z" fill="#F5F5F5"/>
<path d="M205.98 82.3896C207.777 82.3896 209.329 83.2231 210.222 84.5739L211.521 83.701C210.455 81.9512 208.346 80.8848 205.976 80.8848C201.935 80.8848 198.957 83.7958 198.957 87.876C198.957 91.9561 201.939 94.8672 205.976 94.8672C208.314 94.8672 210.356 93.8205 211.482 92.1181L210.218 91.1859C209.306 92.5447 207.769 93.3623 205.976 93.3623C202.927 93.3623 200.596 91.1504 200.596 87.876C200.596 84.6016 202.931 82.3896 205.98 82.3896Z" fill="#F5F5F5"/>
<path d="M220.599 80.8848C216.558 80.8848 213.58 83.7958 213.58 87.876C213.58 91.9561 216.562 94.8672 220.599 94.8672C224.647 94.8672 227.618 91.9561 227.618 87.876C227.618 83.7958 224.647 80.8848 220.599 80.8848ZM220.599 93.3623C217.55 93.3623 215.219 91.1504 215.219 87.876C215.219 84.6016 217.55 82.3896 220.599 82.3896C223.656 82.3896 225.986 84.6016 225.986 87.876C225.986 91.1504 223.656 93.3623 220.599 93.3623Z" fill="#F5F5F5"/>
<path d="M242.623 81.0781L237.883 91.3516L233.136 81.0781H230.766V94.6734H232.33V82.903L237.058 93.1686H238.701L243.437 82.8279V94.6734H245.001V81.0781H242.623Z" fill="#F5F5F5"/>
<path d="M90.7611 59.1639C90.7611 54.9731 87.9685 52.3662 82.7153 52.3662H73.4727V73.6163H78.5403V65.6653H79.2829L84.8837 73.6163H90.923L84.8205 65.5113C88.6361 64.899 90.7611 62.5331 90.7611 59.1639ZM78.5442 61.3955V56.9638H82.656C84.4453 56.9638 85.6026 57.6629 85.6026 59.1639C85.6026 60.6806 84.4808 61.3955 82.656 61.3955H78.5442Z" fill="#F5F5F5"/>
<path d="M90.3965 52.3662C91.5538 53.642 92.328 55.2298 92.6598 57.0705H98.5687V73.6124H103.636V57.0705H109.921L108.427 52.3662H90.3965Z" fill="#F5F5F5"/>
<path d="M180.188 59.1639C180.188 54.9731 177.395 52.3662 172.142 52.3662H162.9H154.834C159.684 53.6065 162.9 57.7143 162.9 62.9913C162.9 68.2643 159.684 72.3761 154.834 73.6163H162.9H167.967V65.6653H168.714L174.315 73.6163H180.354L174.251 65.5113C178.063 64.899 180.188 62.5331 180.188 59.1639ZM167.971 61.3955V56.9638H172.083C173.872 56.9638 175.029 57.6629 175.029 59.1639C175.029 60.6806 173.908 61.3955 172.083 61.3955H167.971Z" fill="#F5F5F5"/>
<path d="M202.595 52.3662H196.358L190.256 60.6372H188.419V52.3662H183.352V73.6124H188.419V65.2032H190.212L196.903 73.6124H203.278L194.356 62.7306L202.595 52.3662Z" fill="#F5F5F5"/>
<path d="M140.5 62.9873C140.5 57.7143 143.715 53.6026 148.565 52.3623H143.071H137.913L133.86 67.6165L129.61 52.3662H124.132L119.882 67.5889L115.829 52.3662H110.592L116.785 73.6163H122.824L126.83 59.9104L130.835 73.6163H136.874H148.562C143.715 72.3721 140.5 68.2643 140.5 62.9873Z" fill="#F5F5F5"/>
<path d="M157.126 62.9881C157.126 59.6505 154.874 57.3438 151.702 57.3438C148.531 57.3438 146.279 59.6505 146.279 62.9881C146.279 66.3257 148.531 68.6324 151.702 68.6324C154.874 68.6324 157.126 66.3257 157.126 62.9881Z" fill="#F5F5F5"/>
<path d="M49.002 73.6124H54.4211L60.18 62.6595L65.9428 73.6124H71.358L60.18 52.3662L49.002 73.6124Z" fill="#F5F5F5"/>
<path d="M71.3589 73.6123H57.416L59.6003 69.8994H68.3452L71.3589 73.6123Z" fill="#F5F5F5"/>
<path d="M214.923 65.7328C214.228 65.9658 213.47 66.0725 212.696 66.0725C208.41 66.0725 205.242 63.0548 205.242 59.0181C205.242 54.9972 208.489 51.9795 212.913 51.9795C217.321 51.9795 220.599 54.9972 220.599 59.0181C220.599 60.7047 220.026 62.1898 218.992 63.8132L212.541 73.9129H209.634L214.923 65.7328ZM218.127 59.022C218.127 56.2058 215.915 54.1953 212.913 54.1953C209.911 54.1953 207.699 56.2216 207.699 59.022C207.699 61.8383 209.911 63.8645 212.913 63.8645C215.915 63.8645 218.127 61.8541 218.127 59.022Z" fill="#F5F5F5"/>
<path d="M231.943 73.9166H229.561V55.463L223.158 58.2319V55.7435L231.943 51.999V73.9166Z" fill="#F5F5F5"/>
<path d="M245.001 73.9166H242.619V55.463L236.217 58.2319V55.7435L245.001 51.999V73.9166Z" fill="#F5F5F5"/>
</svg>
